<svg version="1.1" id="Layer_1" xmlns="http://www.w3.org/2000/svg" xmlns:xlink="http://www.w3.org/1999/xlink" x="0px" y="0px"
	 width="100%" viewBox="0 0 501 194" enable-background="new 0 0 501 194" xml:space="preserve">
<path fill="#FEFEFE" opacity="1.000000" stroke="none" 
	d="
M379.000000,195.000000 
	C252.666687,195.000000 126.833382,195.000000 1.000051,195.000000 
	C1.000034,130.333374 1.000034,65.666733 1.000017,1.000077 
	C167.999939,1.000051 334.999878,1.000051 501.999878,1.000026 
	C501.999908,65.666588 501.999908,130.333176 501.999939,194.999878 
	C461.166656,195.000000 420.333344,195.000000 379.000000,195.000000 
M252.054611,166.509750 
	C252.097672,166.377792 252.199982,166.231094 252.171539,166.116959 
	C252.110825,165.873154 251.982376,165.646210 251.887238,165.456757 
	C251.887238,165.456757 251.927536,165.432739 252.542618,165.814102 
	C256.959625,162.140320 261.265869,158.322372 265.818573,154.825302 
	C273.363708,149.029648 281.193451,143.599426 288.645416,137.690063 
	C291.847626,135.150726 295.699921,132.384277 293.792389,127.063866 
	C280.348114,129.865997 267.178467,132.559357 255.489716,122.578133 
	C252.349991,126.813576 252.002197,131.235275 253.740051,136.125427 
	C254.231384,137.508041 253.415817,139.355087 252.784317,141.540268 
	C243.354446,155.089127 232.100586,166.755646 217.111206,175.642853 
	C214.509842,176.095795 211.908493,176.548737 209.307129,177.001694 
	C209.044540,176.581375 208.781952,176.161057 208.519363,175.740738 
	C210.831497,171.855850 212.805740,167.713623 215.527161,164.140472 
	C220.937347,157.037064 227.070236,150.474045 232.327042,143.266556 
	C238.142761,135.292740 237.231812,132.282928 228.721924,127.011269 
	C223.266708,131.689117 218.537888,137.856857 209.940918,136.870239 
	C211.052414,132.993805 212.277603,129.581024 212.967972,126.063293 
	C213.616608,122.758331 212.212067,120.064255 208.853851,119.079727 
	C205.255371,118.024773 202.765503,119.900597 201.102554,122.952393 
	C198.284103,128.124664 199.753693,134.594345 205.135529,139.831436 
	C199.585403,147.550720 193.992188,155.329910 188.114624,163.209030 
	C183.735397,166.935410 179.356171,170.661804 174.177353,174.375198 
	C169.469101,171.766891 172.839066,168.432922 173.876663,165.912460 
	C177.006119,158.310669 180.644608,150.912933 184.225708,143.503830 
	C189.450455,132.694092 184.591873,126.252258 172.462662,125.336365 
	C171.846100,127.725052 171.375931,130.141769 170.597916,132.454941 
	C167.666656,141.170090 164.163040,149.727325 161.829926,158.595245 
	C160.561737,163.415436 160.532562,168.830078 161.169861,173.820114 
	C162.123962,181.290756 169.889481,182.709946 178.539871,177.065353 
	C182.766525,172.904449 186.993195,168.743546 191.824478,164.219513 
	C196.392563,157.707077 201.116913,151.297058 205.475510,144.647339 
	C208.541611,139.969574 208.319473,139.823975 213.017548,140.903580 
	C209.065445,148.586334 204.780899,156.357956 201.046799,164.385635 
	C198.845398,169.118256 198.938431,174.351547 203.052338,178.076981 
	C207.462708,182.070892 212.700836,181.849121 218.497421,178.795197 
	C225.325546,173.863510 232.943542,169.710251 238.773346,163.794708 
	C245.422241,157.048019 250.477554,148.730865 256.845428,140.781006 
	C263.419373,141.274765 269.993286,141.768524 276.593628,142.264267 
	C274.166656,143.960968 271.221466,145.739807 268.599091,147.908920 
	C262.259460,153.152740 256.070435,158.578674 249.180267,164.233871 
	C245.159897,169.497528 244.811798,173.233658 247.071045,177.203445 
	C253.296844,178.186386 258.676544,178.588074 263.795959,179.960739 
	C269.788452,181.567490 275.530762,181.476028 280.234741,177.595108 
	C285.214203,173.486923 289.410370,168.429352 294.877228,163.828659 
	C295.236755,167.097656 295.358551,170.415085 296.012543,173.624069 
	C296.949554,178.221741 301.988403,182.261154 305.164459,180.884857 
	C308.756836,179.328156 312.069916,177.126923 316.160309,175.120026 
	C320.132629,170.819870 324.104919,166.519699 328.860931,162.116028 
	C329.225494,163.408371 329.723785,164.679520 329.932556,165.996552 
	C331.144897,173.643875 337.721832,179.074127 344.717560,177.968018 
	C355.477905,176.266663 363.314941,169.942825 370.427979,161.426651 
	C370.623932,161.387177 370.819855,161.347687 371.079010,162.312943 
	C371.037994,165.302368 370.775513,168.309357 371.010773,171.276886 
	C371.321716,175.200043 373.196381,178.107330 377.236908,179.060623 
	C384.361847,159.820206 392.561279,141.464813 409.884125,128.146179 
	C411.836731,127.550972 413.789368,126.955757 415.741974,126.360542 
	C415.475830,128.497528 415.528931,130.741180 414.859894,132.743546 
	C414.085419,135.061508 412.489838,137.092804 411.574860,139.378311 
	C408.096375,148.067444 404.330505,156.676758 401.515564,165.582520 
	C399.932953,170.589462 401.891418,175.598221 406.334625,178.760132 
	C410.047424,181.402206 414.452087,181.867111 418.271332,178.978119 
	C424.110504,174.561188 429.653778,169.753082 435.888733,164.788681 
	C439.670746,159.710999 443.452759,154.633316 447.799347,149.128601 
	C448.849609,147.971024 449.899902,146.813446 451.640594,144.894897 
	C453.727051,149.196274 455.393982,152.632721 456.602478,155.124084 
	C451.710632,159.175690 447.200775,162.279663 443.509460,166.161911 
	C440.388092,169.444794 439.844910,173.859970 441.890289,178.193268 
	C443.873657,182.395248 447.208984,184.010117 451.896790,184.190277 
	C460.005371,184.501938 465.462555,180.208740 470.011627,174.457062 
	C474.587311,168.671783 474.011108,161.920029 472.505432,155.265396 
	C476.029968,153.547089 479.542023,151.834869 483.757721,149.975342 
	C495.547516,143.372665 498.511475,140.235306 496.918182,136.688629 
	C491.857605,140.354614 486.729034,144.069870 480.867279,147.832901 
	C477.409088,149.151367 473.950897,150.469849 471.055481,151.573746 
	C465.774780,146.597733 460.690887,141.807159 455.704315,136.259018 
	C457.076233,132.837158 458.448120,129.415298 459.983307,125.255852 
	C459.931030,124.506065 459.878723,123.756271 459.972504,122.326561 
	C459.328217,121.183899 458.683960,120.041237 457.733154,118.192459 
	C451.532898,115.312271 447.256866,117.062508 445.949036,123.613060 
	C445.266479,127.031639 445.130676,130.862900 445.959229,134.207718 
	C447.168396,139.088959 448.434540,143.620728 444.144867,148.191238 
	C440.679810,152.873001 437.214783,157.554779 433.148956,162.610306 
	C427.102325,167.574905 423.187836,175.845963 412.708496,175.905350 
	C413.853271,171.950439 414.387085,168.649811 415.735199,165.724411 
	C419.657745,157.212326 424.254089,148.998138 427.912720,140.381180 
	C430.649658,133.935013 428.862915,128.314713 424.200928,124.733055 
	C419.591461,121.191765 413.918304,121.569511 407.266357,126.023163 
	C403.841431,128.716858 400.416473,131.410568 397.025482,134.077591 
	C393.190247,127.433365 388.571838,125.481964 380.426971,127.202980 
	C378.829651,139.123016 375.808136,150.432510 367.337616,160.166107 
	C361.758331,164.439789 356.571442,169.420624 350.492584,172.794083 
	C344.037628,176.376251 340.404114,173.239044 341.848389,165.902878 
	C342.971161,160.199646 344.821350,154.639603 346.200592,149.559692 
	C348.884766,148.951248 350.945465,148.484131 353.709045,148.106964 
	C354.550751,147.779190 355.392426,147.451416 356.953796,147.141434 
	C364.086578,143.352188 370.328064,138.863235 370.476929,129.007355 
	C369.346619,127.611832 368.216339,126.216309 366.548401,124.184334 
	C353.219604,121.919907 338.506714,133.441925 332.480408,146.912201 
	C330.489594,151.362213 328.012848,155.594818 325.151825,160.186707 
	C321.352997,164.160385 317.554169,168.134079 313.034760,172.518188 
	C310.947510,172.834106 308.860260,173.150009 306.773010,173.465912 
	C307.080841,171.804474 307.076996,170.003494 307.747925,168.504608 
	C311.648987,159.789780 315.972839,151.255981 319.641418,142.447601 
	C323.406952,133.406525 320.739838,128.528595 311.228271,125.751282 
	C310.010132,125.395584 308.743164,125.207047 307.816071,125.008888 
	C303.869720,136.498901 301.706635,148.307602 293.298615,158.080933 
	C291.937195,159.519730 290.702454,161.110352 289.192108,162.370621 
	C283.167023,167.398056 276.971039,172.232758 268.403320,168.558487 
	C262.501038,166.027267 256.735138,165.692352 251.232986,167.851257 
	C251.360184,167.560898 251.487381,167.270523 252.054611,166.509750 
M18.290777,41.481647 
	C34.098164,21.832357 54.462658,12.076784 79.817421,12.970137 
	C92.230743,13.407509 101.714584,21.720783 101.613029,34.067142 
	C101.549149,41.833103 100.267403,50.061398 97.417831,57.243454 
	C88.900780,78.709824 79.052406,99.644112 70.287384,121.017258 
	C63.967808,136.427292 58.141926,152.025299 60.858528,169.406418 
	C62.817890,181.942688 71.234024,190.225204 83.909698,191.189377 
	C92.900826,191.873260 100.872726,189.496918 108.837204,184.171188 
	C113.244652,180.688919 118.035095,177.591553 121.990715,173.655243 
	C136.245407,159.470139 146.929749,142.675293 155.764175,124.763786 
	C168.109726,99.733643 177.590836,73.725708 179.749008,45.591057 
	C180.540268,35.276146 180.631866,24.943237 174.079590,15.985826 
	C171.399582,12.322075 168.289215,9.326221 162.725784,10.013257 
	C170.745422,21.224844 171.528320,33.832123 171.386597,46.487137 
	C171.176254,65.268623 166.589310,83.362999 159.725143,100.600052 
	C147.690063,130.822067 132.762024,159.413818 106.171303,180.832718 
	C102.039970,182.852905 98.074646,185.381882 93.745094,186.794571 
	C82.350433,190.512543 74.437637,184.607773 74.103958,172.673965 
	C73.763931,160.513443 76.794746,148.995499 81.361832,137.953003 
	C90.176750,116.639893 99.702377,95.619591 108.434654,74.273880 
	C113.048889,62.994579 117.089714,51.364746 115.124268,38.748779 
	C113.117165,25.865379 106.357300,16.550274 94.256058,11.354303 
	C85.594345,7.635177 76.642593,7.453354 67.441620,8.887631 
	C45.518894,12.305017 27.396749,21.847580 14.250442,41.047863 
	C8.141873,50.313652 5.054048,60.430283 5.992642,71.568451 
	C6.987104,83.369591 12.068386,92.306412 23.850723,96.487427 
	C31.001036,99.024750 38.251263,99.162415 45.222321,96.602356 
	C51.179131,94.414772 56.608002,90.829483 54.805202,83.396545 
	C52.963448,84.100647 51.198193,84.881035 49.368248,85.455284 
	C43.888912,87.174751 38.480774,89.387802 32.863941,90.331642 
	C26.521078,91.397491 20.426418,90.070068 15.540857,85.143852 
	C9.303712,78.854805 7.884418,70.989731 9.759589,63.059925 
	C11.474905,55.806126 15.073740,48.997726 18.290777,41.481647 
M183.471176,101.092224 
	C182.326813,101.167992 181.121323,101.038811 180.049637,101.358337 
	C176.953827,102.281372 173.606369,103.619087 174.045975,107.438583 
	C174.345215,110.038475 175.640656,113.132423 177.546097,114.797798 
	C180.493332,117.373672 184.250229,116.287300 186.969421,113.819138 
	C190.283005,110.811470 192.264450,106.969070 192.017899,102.280472 
	C189.207291,101.920761 186.760117,101.607567 183.471176,101.092224 
M311.236359,114.266014 
	C318.945496,118.740685 326.528625,112.957680 326.841827,102.294846 
	C323.919861,101.921127 320.910797,100.957283 318.081726,101.336411 
	C315.222015,101.719650 311.270996,102.719307 310.124908,104.757401 
	C308.887177,106.958519 310.344330,110.675072 311.236359,114.266014 
z"/>
<path fill="#040404" opacity="1.000000" stroke="none" 
	d="
M108.129707,184.328537 
	C100.872726,189.496918 92.900826,191.873260 83.909698,191.189377 
	C71.234024,190.225204 62.817890,181.942688 60.858528,169.406418 
	C58.141926,152.025299 63.967808,136.427292 70.287384,121.017258 
	C79.052406,99.644112 88.900780,78.709824 97.417831,57.243454 
	C100.267403,50.061398 101.549149,41.833103 101.613029,34.067142 
	C101.714584,21.720783 92.230743,13.407509 79.817421,12.970137 
	C54.462658,12.076784 34.098164,21.832357 17.715595,41.729836 
	C16.383841,41.556305 15.627270,41.134586 14.870697,40.712868 
	C27.396749,21.847580 45.518894,12.305017 67.441620,8.887631 
	C76.642593,7.453354 85.594345,7.635177 94.256058,11.354303 
	C106.357300,16.550274 113.117165,25.865379 115.124268,38.748779 
	C117.089714,51.364746 113.048889,62.994579 108.434654,74.273880 
	C99.702377,95.619591 90.176750,116.639893 81.361832,137.953003 
	C76.794746,148.995499 73.763931,160.513443 74.103958,172.673965 
	C74.437637,184.607773 82.350433,190.512543 93.745094,186.794571 
	C98.074646,185.381882 102.039970,182.852905 106.649200,181.079132 
	C107.461296,182.326538 107.795502,183.327530 108.129707,184.328537 
z"/>
<path fill="#090909" opacity="1.000000" stroke="none" 
	d="
M108.483459,184.249863 
	C107.795502,183.327530 107.461296,182.326538 106.982376,180.953583 
	C132.762024,159.413818 147.690063,130.822067 159.725143,100.600052 
	C166.589310,83.362999 171.176254,65.268623 171.386597,46.487137 
	C171.528320,33.832123 170.745422,21.224844 162.725784,10.013257 
	C168.289215,9.326221 171.399582,12.322075 174.079590,15.985826 
	C180.631866,24.943237 180.540268,35.276146 179.749008,45.591057 
	C177.590836,73.725708 168.109726,99.733643 155.764175,124.763786 
	C146.929749,142.675293 136.245407,159.470139 121.990715,173.655243 
	C118.035095,177.591553 113.244652,180.688919 108.483459,184.249863 
z"/>
<path fill="#050505" opacity="1.000000" stroke="none" 
	d="
M217.786041,178.838272 
	C212.700836,181.849121 207.462708,182.070892 203.052338,178.076981 
	C198.938431,174.351547 198.845398,169.118256 201.046799,164.385635 
	C204.780899,156.357956 209.065445,148.586334 213.017548,140.903580 
	C208.319473,139.823975 208.541611,139.969574 205.475510,144.647339 
	C201.116913,151.297058 196.392563,157.707077 191.377808,163.922089 
	C190.087082,163.452820 189.243042,163.280975 188.398987,163.109116 
	C193.992188,155.329910 199.585403,147.550720 205.135529,139.831436 
	C199.753693,134.594345 198.284103,128.124664 201.102554,122.952393 
	C202.765503,119.900597 205.255371,118.024773 208.853851,119.079727 
	C212.212067,120.064255 213.616608,122.758331 212.967972,126.063293 
	C212.277603,129.581024 211.052414,132.993805 209.940918,136.870239 
	C218.537888,137.856857 223.266708,131.689117 228.721924,127.011269 
	C237.231812,132.282928 238.142761,135.292740 232.327042,143.266556 
	C227.070236,150.474045 220.937347,157.037064 215.527161,164.140472 
	C212.805740,167.713623 210.831497,171.855850 208.519363,175.740738 
	C208.781952,176.161057 209.044540,176.581375 209.307129,177.001694 
	C211.908493,176.548737 214.509842,176.095795 217.429108,175.943329 
	C217.760010,177.108627 217.773026,177.973450 217.786041,178.838272 
M208.874054,124.051567 
	C207.827408,123.637665 206.315384,122.559814 205.808075,122.915398 
	C201.912628,125.645798 202.346558,131.832932 206.862259,135.146957 
	C207.576477,131.589218 208.251480,128.226837 208.874054,124.051567 
z"/>
<path fill="#040404" opacity="1.000000" stroke="none" 
	d="
M483.054077,150.122650 
	C479.542023,151.834869 476.029968,153.547089 472.505432,155.265396 
	C474.011108,161.920029 474.587311,168.671783 470.011627,174.457062 
	C465.462555,180.208740 460.005371,184.501938 451.896790,184.190277 
	C447.208984,184.010117 443.873657,182.395248 441.890289,178.193268 
	C439.844910,173.859970 440.388092,169.444794 443.509460,166.161911 
	C447.200775,162.279663 451.710632,159.175690 456.602478,155.124084 
	C455.393982,152.632721 453.727051,149.196274 451.640594,144.894897 
	C449.899902,146.813446 448.849609,147.971024 447.333069,148.991760 
	C446.160858,148.544388 445.454956,148.233887 444.749054,147.923370 
	C448.434540,143.620728 447.168396,139.088959 445.959229,134.207718 
	C445.130676,130.862900 445.266479,127.031639 445.949036,123.613060 
	C447.256866,117.062508 451.532898,115.312271 457.852539,118.861099 
	C458.590088,120.688652 459.208282,121.847565 459.826447,123.006485 
	C459.878723,123.756271 459.931030,124.506065 459.572571,125.690041 
	C458.030151,126.753159 456.898499,127.382095 455.816284,127.585510 
	C455.917053,126.499863 456.212128,125.730766 455.974731,125.199669 
	C455.206940,123.481972 454.293915,120.478630 453.346100,120.443863 
	C450.440216,120.337250 448.388855,122.631790 449.115295,125.535851 
	C449.784515,128.211182 451.656036,130.585770 453.028198,133.413849 
	C453.907959,134.828766 454.757477,135.922668 455.606995,137.016602 
	C460.690887,141.807159 465.774780,146.597733 471.055481,151.573746 
	C473.950897,150.469849 477.409088,149.151367 481.546631,147.998657 
	C482.501984,148.817169 482.778046,149.469910 483.054077,150.122650 
M457.009766,165.267242 
	C457.009766,163.755020 457.009766,162.242783 457.009766,160.576752 
	C447.960968,164.346558 444.639252,167.828888 445.079926,173.724808 
	C445.214050,175.519440 446.651947,178.444534 447.859222,178.645050 
	C449.698792,178.950562 452.847565,177.890778 453.674713,176.418655 
	C455.399719,173.348694 455.969177,169.629440 457.009766,165.267242 
z"/>
<path fill="#040404" opacity="1.000000" stroke="none" 
	d="
M407.924408,125.816849 
	C413.918304,121.569511 419.591461,121.191765 424.200928,124.733055 
	C428.862915,128.314713 430.649658,133.935013 427.912720,140.381180 
	C424.254089,148.998138 419.657745,157.212326 415.735199,165.724411 
	C414.387085,168.649811 413.853271,171.950439 412.708496,175.905350 
	C423.187836,175.845963 427.102325,167.574905 433.525635,162.846283 
	C434.375732,163.758514 434.849182,164.434769 435.322632,165.111023 
	C429.653778,169.753082 424.110504,174.561188 418.271332,178.978119 
	C414.452087,181.867111 410.047424,181.402206 406.334625,178.760132 
	C401.891418,175.598221 399.932953,170.589462 401.515564,165.582520 
	C404.330505,156.676758 408.096375,148.067444 411.574860,139.378311 
	C412.489838,137.092804 414.085419,135.061508 414.859894,132.743546 
	C415.528931,130.741180 415.475830,128.497528 415.741974,126.360542 
	C413.789368,126.955757 411.836731,127.550972 409.389099,127.933395 
	C408.570831,127.086029 408.247620,126.451439 407.924408,125.816849 
z"/>
<path fill="#050505" opacity="1.000000" stroke="none" 
	d="
M369.917938,161.741959 
	C363.314941,169.942825 355.477905,176.266663 344.717560,177.968018 
	C337.721832,179.074127 331.144897,173.643875 329.932556,165.996552 
	C329.723785,164.679520 329.225494,163.408371 328.402740,161.807373 
	C327.215790,160.974762 326.487030,160.450790 325.758240,159.926819 
	C328.012848,155.594818 330.489594,151.362213 332.480408,146.912201 
	C338.506714,133.441925 353.219604,121.919907 366.703247,124.805878 
	C366.879547,126.689171 366.901031,127.950920 366.536194,129.136108 
	C360.976166,129.420578 350.837097,139.316193 349.308380,145.635147 
	C350.578278,145.467056 351.784912,145.307358 352.997314,145.506287 
	C353.004120,146.582291 353.005157,147.299652 353.006165,148.017029 
	C350.945465,148.484131 348.884766,148.951248 346.200592,149.559692 
	C344.821350,154.639603 342.971161,160.199646 341.848389,165.902878 
	C340.404114,173.239044 344.037628,176.376251 350.492584,172.794083 
	C356.571442,169.420624 361.758331,164.439789 367.789642,160.287537 
	C368.741180,160.620743 369.240662,160.832504 369.778809,161.220169 
	C369.817474,161.396057 369.917938,161.741959 369.917938,161.741959 
z"/>
<path fill="#040404" opacity="1.000000" stroke="none" 
	d="
M315.504425,175.205963 
	C312.069916,177.126923 308.756836,179.328156 305.164459,180.884857 
	C301.988403,182.261154 296.949554,178.221741 296.012543,173.624069 
	C295.358551,170.415085 295.236755,167.097656 294.432343,163.379562 
	C293.961914,161.211426 293.936340,159.492386 293.910767,157.773346 
	C301.706635,148.307602 303.869720,136.498901 307.816071,125.008888 
	C308.743164,125.207047 310.010132,125.395584 311.228271,125.751282 
	C320.739838,128.528595 323.406952,133.406525 319.641418,142.447601 
	C315.972839,151.255981 311.648987,159.789780 307.747925,168.504608 
	C307.076996,170.003494 307.080841,171.804474 306.773010,173.465912 
	C308.860260,173.150009 310.947510,172.834106 313.481659,172.772079 
	C314.453857,173.752625 314.979156,174.479294 315.504425,175.205963 
z"/>
<path fill="#040404" opacity="1.000000" stroke="none" 
	d="
M177.962296,177.269653 
	C169.889481,182.709946 162.123962,181.290756 161.169861,173.820114 
	C160.532562,168.830078 160.561737,163.415436 161.829926,158.595245 
	C164.163040,149.727325 167.666656,141.170090 170.597916,132.454941 
	C171.375931,130.141769 171.846100,127.725052 172.462662,125.336365 
	C184.591873,126.252258 189.450455,132.694092 184.225708,143.503830 
	C180.644608,150.912933 177.006119,158.310669 173.876663,165.912460 
	C172.839066,168.432922 169.469101,171.766891 174.652008,174.744720 
	C176.071869,175.832733 177.017075,176.551193 177.962296,177.269653 
z"/>
<path fill="#040404" opacity="1.000000" stroke="none" 
	d="
M369.740173,161.044281 
	C369.240662,160.832504 368.741180,160.620743 368.105164,160.166718 
	C375.808136,150.432510 378.829651,139.123016 380.426971,127.202980 
	C388.571838,125.481964 393.190247,127.433365 397.025482,134.077591 
	C400.416473,131.410568 403.841431,128.716858 407.595398,125.920006 
	C408.247620,126.451439 408.570831,127.086029 409.024689,128.052338 
	C392.561279,141.464813 384.361847,159.820206 377.236908,179.060623 
	C373.196381,178.107330 371.321716,175.200043 371.010773,171.276886 
	C370.775513,168.309357 371.037994,165.302368 370.866150,161.669678 
	C370.347015,160.934235 370.042633,160.940201 369.740173,161.044281 
z"/>
<path fill="#040404" opacity="1.000000" stroke="none" 
	d="
M249.820679,163.931183 
	C256.070435,158.578674 262.259460,153.152740 268.599091,147.908920 
	C271.221466,145.739807 274.166656,143.960968 276.593628,142.264267 
	C269.993286,141.768524 263.419373,141.274765 256.157593,140.914764 
	C254.713074,141.028732 253.956375,141.008942 253.199661,140.989136 
	C253.415817,139.355087 254.231384,137.508041 253.740051,136.125427 
	C252.002197,131.235275 252.349991,126.813576 255.489716,122.578133 
	C267.178467,132.559357 280.348114,129.865997 293.792389,127.063866 
	C295.699921,132.384277 291.847626,135.150726 288.645416,137.690063 
	C281.193451,143.599426 273.363708,149.029648 265.818573,154.825302 
	C261.265869,158.322372 256.959625,162.140320 251.903152,165.345016 
	C250.782684,164.561020 250.301682,164.246094 249.820679,163.931183 
z"/>
<path fill="#0B0B0B" opacity="1.000000" stroke="none" 
	d="
M14.560570,40.880363 
	C15.627270,41.134586 16.383841,41.556305 17.491486,41.985535 
	C15.073740,48.997726 11.474905,55.806126 9.759589,63.059925 
	C7.884418,70.989731 9.303712,78.854805 15.540857,85.143852 
	C20.426418,90.070068 26.521078,91.397491 32.863941,90.331642 
	C38.480774,89.387802 43.888912,87.174751 49.368248,85.455284 
	C51.198193,84.881035 52.963448,84.100647 54.805202,83.396545 
	C56.608002,90.829483 51.179131,94.414772 45.222321,96.602356 
	C38.251263,99.162415 31.001036,99.024750 23.850723,96.487427 
	C12.068386,92.306412 6.987104,83.369591 5.992642,71.568451 
	C5.054048,60.430283 8.141873,50.313652 14.560570,40.880363 
z"/>
<path fill="#060606" opacity="1.000000" stroke="none" 
	d="
M249.500473,164.082520 
	C250.301682,164.246094 250.782684,164.561020 251.595612,165.154327 
	C251.927536,165.432739 251.887238,165.456757 251.586578,165.729492 
	C251.246719,166.274811 251.207504,166.547394 251.094788,167.005539 
	C250.998138,167.713989 250.975021,168.236893 250.951904,168.759796 
	C256.735138,165.692352 262.501038,166.027267 268.403320,168.558487 
	C276.971039,172.232758 283.167023,167.398056 289.192108,162.370621 
	C290.702454,161.110352 291.937195,159.519730 293.604675,157.927139 
	C293.936340,159.492386 293.961914,161.211426 293.968048,163.358459 
	C289.410370,168.429352 285.214203,173.486923 280.234741,177.595108 
	C275.530762,181.476028 269.788452,181.567490 263.795959,179.960739 
	C258.676544,178.588074 253.296844,178.186386 247.071045,177.203445 
	C244.811798,173.233658 245.159897,169.497528 249.500473,164.082520 
z"/>
<path fill="#060606" opacity="1.000000" stroke="none" 
	d="
M183.892059,101.193298 
	C186.760117,101.607567 189.207291,101.920761 192.017899,102.280472 
	C192.264450,106.969070 190.283005,110.811470 186.969421,113.819138 
	C184.250229,116.287300 180.493332,117.373672 177.546097,114.797798 
	C175.640656,113.132423 174.345215,110.038475 174.045975,107.438583 
	C173.606369,103.619087 176.953827,102.281372 180.049637,101.358337 
	C181.121323,101.038811 182.326813,101.167992 183.892059,101.193298 
z"/>
<path fill="#080808" opacity="1.000000" stroke="none" 
	d="
M310.931152,113.998306 
	C310.344330,110.675072 308.887177,106.958519 310.124908,104.757401 
	C311.270996,102.719307 315.222015,101.719650 318.081726,101.336411 
	C320.910797,100.957283 323.919861,101.921127 326.841827,102.294846 
	C326.528625,112.957680 318.945496,118.740685 310.931152,113.998306 
z"/>
<path fill="#121212" opacity="1.000000" stroke="none" 
	d="
M252.991989,141.264709 
	C253.956375,141.008942 254.713074,141.028732 255.847610,141.072372 
	C250.477554,148.730865 245.422241,157.048019 238.773346,163.794708 
	C232.943542,169.710251 225.325546,173.863510 218.141724,178.816742 
	C217.773026,177.973450 217.760010,177.108627 217.814133,175.802856 
	C232.100586,166.755646 243.354446,155.089127 252.991989,141.264709 
z"/>
<path fill="#151515" opacity="1.000000" stroke="none" 
	d="
M315.832367,175.162994 
	C314.979156,174.479294 314.453857,173.752625 313.841949,172.566864 
	C317.554169,168.134079 321.352997,164.160385 325.455017,160.056763 
	C326.487030,160.450790 327.215790,160.974762 328.010895,161.859131 
	C324.104919,166.519699 320.132629,170.819870 315.832367,175.162994 
z"/>
<path fill="#050505" opacity="1.000000" stroke="none" 
	d="
M370.634644,129.714996 
	C370.328064,138.863235 364.086578,143.352188 356.286987,146.901398 
	C355.349060,145.953979 355.078003,145.246582 355.053589,144.321960 
	C360.894104,140.777115 366.329315,137.315384 367.644745,130.004196 
	C368.928131,129.905197 369.781403,129.810104 370.634644,129.714996 
z"/>
<path fill="#141414" opacity="1.000000" stroke="none" 
	d="
M435.605682,164.949860 
	C434.849182,164.434769 434.375732,163.758514 433.826019,162.659393 
	C437.214783,157.554779 440.679810,152.873001 444.446960,148.057312 
	C445.454956,148.233887 446.160858,148.544388 447.050781,149.205261 
	C443.452759,154.633316 439.670746,159.710999 435.605682,164.949860 
z"/>
<path fill="#111111" opacity="1.000000" stroke="none" 
	d="
M178.251083,177.167511 
	C177.017075,176.551193 176.071869,175.832733 175.051788,174.751221 
	C179.356171,170.661804 183.735397,166.935410 188.256805,163.159073 
	C189.243042,163.280975 190.087082,163.452820 191.075500,164.103668 
	C186.993195,168.743546 182.766525,172.904449 178.251083,177.167511 
z"/>
<path fill="#191919" opacity="1.000000" stroke="none" 
	d="
M483.405884,150.048996 
	C482.778046,149.469910 482.501984,148.817169 481.913208,147.974762 
	C486.729034,144.069870 491.857605,140.354614 496.918182,136.688629 
	C498.511475,140.235306 495.547516,143.372665 483.405884,150.048996 
z"/>
<path fill="#0B0B0B" opacity="1.000000" stroke="none" 
	d="
M455.766815,128.011032 
	C456.898499,127.382095 458.030151,126.753159 459.490906,126.058838 
	C458.448120,129.415298 457.076233,132.837158 455.655640,136.637802 
	C454.757477,135.922668 453.907959,134.828766 453.271362,133.192535 
	C454.245148,131.103806 455.005981,129.557419 455.766815,128.011032 
z"/>
<path fill="#111111" opacity="1.000000" stroke="none" 
	d="
M370.555786,129.361176 
	C369.781403,129.810104 368.928131,129.905197 367.512085,129.827240 
	C366.949310,129.654175 366.922516,129.212662 366.922485,129.212662 
	C366.901031,127.950920 366.879547,126.689171 366.972046,125.124107 
	C368.216339,126.216309 369.346619,127.611832 370.555786,129.361176 
z"/>
<path fill="#0B0B0B" opacity="1.000000" stroke="none" 
	d="
M459.899475,122.666519 
	C459.208282,121.847565 458.590088,120.688652 458.005798,119.214157 
	C458.683960,120.041237 459.328217,121.183899 459.899475,122.666519 
z"/>
<path fill="#111111" opacity="1.000000" stroke="none" 
	d="
M354.806946,144.539215 
	C355.078003,145.246582 355.349060,145.953979 355.927124,146.892502 
	C355.392426,147.451416 354.550751,147.779190 353.357605,148.061996 
	C353.005157,147.299652 353.004120,146.582291 353.295685,145.392273 
	C353.994507,144.792831 354.400726,144.666016 354.806946,144.539215 
z"/>
<path fill="#121212" opacity="1.000000" stroke="none" 
	d="
M251.092453,168.305527 
	C250.975021,168.236893 250.998138,167.713989 251.206055,167.044708 
	C251.390869,166.898315 251.614594,166.980164 251.614594,166.980164 
	C251.487381,167.270523 251.360184,167.560898 251.092453,168.305527 
z"/>
<path fill="#040404" opacity="1.000000" stroke="none" 
	d="
M251.834595,166.744965 
	C251.614594,166.980164 251.390869,166.898315 251.279587,166.859161 
	C251.207504,166.547394 251.246719,166.274811 251.583786,165.707291 
	C251.982376,165.646210 252.110825,165.873154 252.171539,166.116959 
	C252.199982,166.231094 252.097672,166.377792 251.834595,166.744965 
z"/>
<path fill="#191919" opacity="1.000000" stroke="none" 
	d="
M369.778809,161.220154 
	C370.042633,160.940201 370.347015,160.934235 370.834564,161.167297 
	C370.819855,161.347687 370.623932,161.387177 370.172974,161.584305 
	C369.917938,161.741959 369.817474,161.396057 369.778809,161.220154 
z"/>
<path fill="#ECECEC" opacity="1.000000" stroke="none" 
	d="
M208.900269,124.458008 
	C208.251480,128.226837 207.576477,131.589218 206.862259,135.146957 
	C202.346558,131.832932 201.912628,125.645798 205.808075,122.915398 
	C206.315384,122.559814 207.827408,123.637665 208.900269,124.458008 
z"/>
<path fill="#F8F8F8" opacity="1.000000" stroke="none" 
	d="
M457.011597,165.722107 
	C455.969177,169.629440 455.399719,173.348694 453.674713,176.418655 
	C452.847565,177.890778 449.698792,178.950562 447.859222,178.645050 
	C446.651947,178.444534 445.214050,175.519440 445.079926,173.724808 
	C444.639252,167.828888 447.960968,164.346558 457.009766,160.576752 
	C457.009766,162.242783 457.009766,163.755020 457.011597,165.722107 
z"/>
<path fill="#F1F1F1" opacity="1.000000" stroke="none" 
	d="
M455.816284,127.585510 
	C455.005981,129.557419 454.245148,131.103806 453.241150,132.871521 
	C451.656036,130.585770 449.784515,128.211182 449.115295,125.535851 
	C448.388855,122.631790 450.440216,120.337250 453.346100,120.443863 
	C454.293915,120.478630 455.206940,123.481972 455.974731,125.199669 
	C456.212128,125.730766 455.917053,126.499863 455.816284,127.585510 
z"/>
<path fill="#F4F4F4" opacity="1.000000" stroke="none" 
	d="
M355.053589,144.321960 
	C354.400726,144.666016 353.994507,144.792831 353.289917,145.033661 
	C351.784912,145.307358 350.578278,145.467056 349.308380,145.635147 
	C350.837097,139.316193 360.976166,129.420578 366.536194,129.136108 
	C366.922516,129.212662 366.949310,129.654175 367.081970,129.831131 
	C366.329315,137.315384 360.894104,140.777115 355.053589,144.321960 
z"/>
</svg>