<svg cache-id="f1123f2b09a04485a455e9158ed7d132" id="e4Rz3bOiVXr1" xmlns="http://www.w3.org/2000/svg" xmlns:xlink="http://www.w3.org/1999/xlink" viewBox="0 0 501 194" shape-rendering="geometricPrecision" text-rendering="geometricPrecision"><g transform="matrix(.1 0 0-.1 0 194)"><path d="M627,1855c-252-48-482-227-551-430-43-126-27-283,37-360c88-107,298-129,392-41c26,24,35,42,35,65v31l-37-16c-135-60-246-75-309-41-122,64-146,228-59,400c108,211,353,356,605,357c94,0,137-12,186-51c83-66,105-181,61-324-47-154-60-184-203-495C641,640,598,500,597,350c0-86,3-115,22-163c27-69,49-91,119-124c46-22,64-25,136-22c121,6,207,52,335,179c149,148,202,225,357,520c65,124,162,404,200,580c10,47,16,129,17,220c2,140,1,147-26,202-32,64-77,108-112,108h-23l28-57c50-101,65-268,41-458-26-199-120-467-249-705C1222,223,933,-9,781,99c-110,78-48,359,191,870c144,309,191,482,164,610-19,92-45,139-105,193-94,85-237,114-404,83Z"/><path d="M1780,933c-56-21-68-87-24-122c48-38,103-20,134,44c30,62,27,71-26,79-53,7-63,7-84-1Z"/><path d="M3120,929c-32-13-40-27-40-66c0-69,72-95,129-47c27,22,61,97,50,108-11,10-117,14-139,5Z"/><path d="M4469,754c-21-22-24-35-23-93c0-37,6-81,13-98c12-29,10-35-22-85-49-75-88-123-164-200-67-68-111-95-138-85-29,12-6,74,99,276c48,92,56,152,26,199-29,47-79,66-132,51-42-11-152-88-161-111-3-8-9-1-15,14-17,41-68,63-139,59-19-1-23-7-23-31c0-58-59-217-99-267-79-101-190-179-244-171-52,7-54,86-6,198c19,45,22,47,79,58c108,23,201,136,168,206-32,72-200,27-295-79-43-48-93-135-93-163c0-40-197-236-226-225-25,10-13,54,60,209c62,131,75,179,60,218-8,20-61,52-101,61-27,5-33,3-33-10c0-23-58-190-83-240-29-59-120-148-178-175l-51-24-82,22c-86,22-127,20-164-10-13-11-14-11-7,2c19,33,65,74,163,148c251,187,293,227,272,261-6,11-15,11-46,0-22-7-79-12-129-12-95,0-150,16-191,54l-21,20-13-30c-12-29-10-90,3-121c8-17-78-138-151-213-132-136-292-227-292-167c0,42,39,100,162,242c37,42,74,91,83,108c22,42,11,84-26,111l-30,21-39-36c-48-43-91-66-125-66-29,0-30,5-10,53c30,73,10,127-48,127-64,0-92-118-43-177l25-30-47-69c-120-179-229-291-269-277-24,9-13,46,57,197c86,186,90,222,32,261-20,13-51,27-68,31-29,6-31,4-37-28-3-18-26-90-52-158-41-107-49-138-53-217-4-92-4-92,26-123c38-37,63-38,128-1c80,46,239,234,303,358c8,15,20,21,41,21c16-1,30-3,30-5s-16-26-35-54c-113-164-133-286-56-332c43-25,81-21,160,19c108,54,289,233,345,341c14,29,19,31,42,23c34-13,126-13,160,1c28,10,28,10,9-11-10-11-35-30-54-42-54-33-172-128-208-168-35-38-49-82-39-127c6-27,9-28,48-25c23,3,77-4,120-13c64-15,85-16,116-7c50,15,122,71,165,127l34,44l6-56c7-64,31-103,71-118c41-14,122,32,200,116c35,38,67,69,70,69s6-11,6-25c0-40,26-92,56-112c39-25,126-23,184,5c25,12,73,48,108,80l62,58v-62c0-63,24-114,54-114c7,0,20,26,30,57c25,79,103,226,158,298c56,74,146,160,177,170c48,15,46-10-12-127-118-241-131-315-65-385c60-64,152-28,282,108c47,49,104,117,127,150c22,33,46,58,52,56c13-4,42-51,51-82c4-16-3-24-35-39-113-55-152-164-84-232c19-19,35-24,74-24c65,0,98,13,144,58c56,54,68,84,68,162v68l92,47c92,47,131,75,148,108c20,36-3,39-40,4-54-51-91-73-162-99l-64-23-76,77-75,76l22,44c27,51,30,95,8,126-22,32-73,30-105-4Zm90-469c-13-95-62-150-105-115-17,15-18,79-1,101c18,23,98,79,107,74c4-2,3-29-1-60Z"/></g></svg>
