<?xml version="1.0" standalone="no"?>
<!DOCTYPE svg PUBLIC "-//W3C//DTD SVG 20010904//EN"
 "http://www.w3.org/TR/2001/REC-SVG-20010904/DTD/svg10.dtd">
<svg version="1.0" xmlns="http://www.w3.org/2000/svg"
 width="501.000000pt" height="194.000000pt" viewBox="0 0 501.000000 194.000000"
 preserveAspectRatio="xMidYMid meet">
<metadata>
Created by potrace 1.16, written by Peter Selinger 2001-2019
</metadata>
<g transform="translate(0.000000,194.000000) scale(0.100000,-0.100000)"
fill="#000000" stroke="none">
<path d="M627 1855 c-252 -48 -482 -227 -551 -430 -43 -126 -27 -283 37 -360
88 -107 298 -129 392 -41 26 24 35 42 35 65 l0 31 -37 -16 c-135 -60 -246 -75
-309 -41 -122 64 -146 228 -59 400 108 211 353 356 605 357 94 0 137 -12 186
-51 83 -66 105 -181 61 -324 -47 -154 -60 -184 -203 -495 -143 -310 -186 -450
-187 -600 0 -86 3 -115 22 -163 27 -69 49 -91 119 -124 46 -22 64 -25 136 -22
121 6 207 52 335 179 149 148 202 225 357 520 65 124 162 404 200 580 10 47
16 129 17 220 2 140 1 147 -26 202 -32 64 -77 108 -112 108 l-23 0 28 -57 c50
-101 65 -268 41 -458 -26 -199 -120 -467 -249 -705 -220 -407 -509 -639 -661
-531 -110 78 -48 359 191 870 144 309 191 482 164 610 -19 92 -45 139 -105
193 -94 85 -237 114 -404 83z"/>
<path d="M1780 933 c-56 -21 -68 -87 -24 -122 48 -38 103 -20 134 44 30 62 27
71 -26 79 -53 7 -63 7 -84 -1z"/>
<path d="M3120 929 c-32 -13 -40 -27 -40 -66 0 -69 72 -95 129 -47 27 22 61
97 50 108 -11 10 -117 14 -139 5z"/>
<path d="M4469 754 c-21 -22 -24 -35 -23 -93 0 -37 6 -81 13 -98 12 -29 10
-35 -22 -85 -49 -75 -88 -123 -164 -200 -67 -68 -111 -95 -138 -85 -29 12 -6
74 99 276 48 92 56 152 26 199 -29 47 -79 66 -132 51 -42 -11 -152 -88 -161
-111 -3 -8 -9 -1 -15 14 -17 41 -68 63 -139 59 -19 -1 -23 -7 -23 -31 0 -58
-59 -217 -99 -267 -79 -101 -190 -179 -244 -171 -52 7 -54 86 -6 198 19 45 22
47 79 58 108 23 201 136 168 206 -32 72 -200 27 -295 -79 -43 -48 -93 -135
-93 -163 0 -40 -197 -236 -226 -225 -25 10 -13 54 60 209 62 131 75 179 60
218 -8 20 -61 52 -101 61 -27 5 -33 3 -33 -10 0 -23 -58 -190 -83 -240 -29
-59 -120 -148 -178 -175 l-51 -24 -82 22 c-86 22 -127 20 -164 -10 -13 -11
-14 -11 -7 2 19 33 65 74 163 148 251 187 293 227 272 261 -6 11 -15 11 -46 0
-22 -7 -79 -12 -129 -12 -95 0 -150 16 -191 54 l-21 20 -13 -30 c-12 -29 -10
-90 3 -121 8 -17 -78 -138 -151 -213 -132 -136 -292 -227 -292 -167 0 42 39
100 162 242 37 42 74 91 83 108 22 42 11 84 -26 111 l-30 21 -39 -36 c-48 -43
-91 -66 -125 -66 -29 0 -30 5 -10 53 30 73 10 127 -48 127 -64 0 -92 -118 -43
-177 l25 -30 -47 -69 c-120 -179 -229 -291 -269 -277 -24 9 -13 46 57 197 86
186 90 222 32 261 -20 13 -51 27 -68 31 -29 6 -31 4 -37 -28 -3 -18 -26 -90
-52 -158 -41 -107 -49 -138 -53 -217 -4 -92 -4 -92 26 -123 38 -37 63 -38 128
-1 80 46 239 234 303 358 8 15 20 21 41 21 16 -1 30 -3 30 -5 0 -2 -16 -26
-35 -54 -113 -164 -133 -286 -56 -332 43 -25 81 -21 160 19 108 54 289 233
345 341 14 29 19 31 42 23 34 -13 126 -13 160 1 28 10 28 10 9 -11 -10 -11
-35 -30 -54 -42 -54 -33 -172 -128 -208 -168 -35 -38 -49 -82 -39 -127 6 -27
9 -28 48 -25 23 3 77 -4 120 -13 64 -15 85 -16 116 -7 50 15 122 71 165 127
l34 44 6 -56 c7 -64 31 -103 71 -118 41 -14 122 32 200 116 35 38 67 69 70 69
3 0 6 -11 6 -25 0 -40 26 -92 56 -112 39 -25 126 -23 184 5 25 12 73 48 108
80 l62 58 0 -62 c0 -63 24 -114 54 -114 7 0 20 26 30 57 25 79 103 226 158
298 56 74 146 160 177 170 48 15 46 -10 -12 -127 -118 -241 -131 -315 -65
-385 60 -64 152 -28 282 108 47 49 104 117 127 150 22 33 46 58 52 56 13 -4
42 -51 51 -82 4 -16 -3 -24 -35 -39 -113 -55 -152 -164 -84 -232 19 -19 35
-24 74 -24 65 0 98 13 144 58 56 54 68 84 68 162 l0 68 92 47 c92 47 131 75
148 108 20 36 -3 39 -40 4 -54 -51 -91 -73 -162 -99 l-64 -23 -76 77 -75 76
22 44 c27 51 30 95 8 126 -22 32 -73 30 -105 -4z m90 -469 c-13 -95 -62 -150
-105 -115 -17 15 -18 79 -1 101 18 23 98 79 107 74 4 -2 3 -29 -1 -60z"/>
</g>
</svg>
